<svg id="Layer_1" height="512" viewBox="0 0 512 512" width="512" xmlns="http://www.w3.org/2000/svg" data-name="Layer 1"><path d="m44 329.578h16v28.844h-16z" transform="matrix(.555 -.832 .832 .555 -263.07 196.45)"/><path d="m112 304h16v24h-16z"/><path d="m72 309.578h16v28.844h-16z" transform="matrix(.832 -.555 .555 .832 -166.287 98.792)"/><path d="m173.578 336h28.844v16h-28.844z" transform="matrix(.832 -.555 .555 .832 -159.242 162.058)"/><path d="m145.578 316h28.844v16h-28.844z" transform="matrix(.555 -.832 .832 .555 -198.336 277.405)"/><path d="m185.321 3.6a8 8 0 0 0 -.675 7.555l7.067 16.491-115.829 69.494a8 8 0 0 0 -3.884 6.86v80a8 8 0 0 0 8 8h32v24h-22.027a34.013 34.013 0 0 0 -33.911 32h-19.238a36.866 36.866 0 0 0 -36.824 36.824v3.176a8.025 8.025 0 0 0 .062.992l22.885 183.085a8 8 0 0 0 -6.947 7.923v24a8 8 0 0 0 8 8h192a8 8 0 0 0 8-8v-24a8 8 0 0 0 -6.947-7.923l22.886-183.085a8.025 8.025 0 0 0 .061-.992v-3.176a36.866 36.866 0 0 0 -36.824-36.824h-11.238a34.013 34.013 0 0 0 -33.911-32h-30.027v-24h40a8 8 0 0 0 7.354-4.849l24-56a8 8 0 0 0 -12.352-9.4l-27 21.6v-26.151l58.878-26.17 37.766 88.121a8 8 0 0 0 7.354 4.849h160v328h40v-176h16v176h32v-328h-72v-16h72v-168h-320a8 8 0 0 0 -6.679 3.6zm-84.377 468.4 8-16h22.111l8 16zm24.712-122.344.056-.063-.055.064zm97.282-53.656-22 176h-43.994l-11.624-23.247a48 48 0 0 0 22.68-40.753c0-11.095-7.07-25.849-21.616-45.105a308.187 308.187 0 0 0 -20.6-24.418 8 8 0 0 0 -5.691-2.477h-.093a8 8 0 0 0 -5.657 2.343c-.126.126-4.7 5.116-4.8 5.241-10.737 12.85-14.071 25.443-14.693 34.9l-2.572-1.286a8 8 0 0 0 -10.461 3.078c-6.606 11.15-9.817 20.224-9.817 27.724a48 48 0 0 0 22.68 40.753l-11.624 23.247h-43.993l-22-176zm-64.91-64a18 18 0 0 1 17.865 16h-103.786a18 18 0 0 1 17.865-16zm14.046-77.814-9.349 21.814h-34.725v-8h24a8 8 0 0 0 5-1.753zm160.696 13.814c-34.86-17.88-57.31-41.17-58.56-42.48l11.58-11.04c.38.4 38.72 40.05 91.22 53.52zm-71.19-100.18a292.793 292.793 0 0 0 129.85 20.2l1.14 15.96c-7.57.54-14.96.79-22.15.79a308.31 308.31 0 0 1 -115.43-22.36 284.9 284.9 0 0 1 -28.04-13.18l-10.83-25.25c6.41 4.41 22.21 14.45 45.46 23.84zm-49 8.5-63.826 28.367a8 8 0 0 0 -4.754 7.313v40h-24v-32h-16v40a8 8 0 0 0 8 8v8h-24v-67.471l110.075-66.044z"/></svg>