<svg id="Layer_1" height="512" viewBox="0 0 512 512" width="512" xmlns="http://www.w3.org/2000/svg" data-name="Layer 1"><path d="m8 288 24 192h176l24-192z" fill="#e0e0e0"/><path d="m152 160v-48l72-32-18-52-126 76v80h88l24-56-40 32h-40v-40" fill="#f2c186"/><path d="m160 408a40 40 0 0 1 -80 0c0-6.65 3.63-15.09 8.7-23.65l15.3 7.65s-6.99-20.98 11.72-43.33a.868.868 0 0 1 .13-.14c1.95-2.19 3.35-3.68 3.89-4.26.08-.09.17-.18.26-.27 0 0 40 41.91 40 64z" fill="#f99426"/><path d="m512 8h-320l72 168h168v336h80z" fill="#5b223c"/><path d="m392.57 103.98c-7.57.54-14.96.79-22.15.79a308.31 308.31 0 0 1 -115.43-22.36 272.093 272.093 0 0 1 -39.59-19.82h-.01l-9.68-22.59h2.29a7.941 7.941 0 0 1 4.91 1.69c.17.12 17.88 13.7 48.67 26.13a292.821 292.821 0 0 0 129.85 20.2z" fill="#351e27"/><path d="m158.027 216h-30.027v-56h-16v56h-22.027a34.011 34.011 0 0 0 -33.973 33.973v6.027h16v-6.027a17.993 17.993 0 0 1 17.973-17.973h68.055a17.993 17.993 0 0 1 17.972 17.973v6.027h16v-6.027a34.011 34.011 0 0 0 -33.973-33.973z" fill="#5b223c"/><path d="m384.13 176h-33.86c-44.69-17.93-74.61-48.95-76.06-50.48l11.58-11.04c.38.4 39.18 40.52 92.15 53.76a7.993 7.993 0 0 1 5.93 6.33z" fill="#351e27"/><path d="m36.824 256h166.352a28.824 28.824 0 0 1 28.824 28.824v3.176a0 0 0 0 1 0 0h-224a0 0 0 0 1 0 0v-3.176a28.824 28.824 0 0 1 28.824-28.824z" fill="#ea2f4e"/><path d="m24 480h192v24h-192z" fill="#ea2f4e"/><path d="m88 480 16-32h32l16 32z" fill="#b21839"/><g fill="#db8721"><path d="m44 329.578h16v28.844h-16z" transform="matrix(.555 -.832 .832 .555 -263.07 196.45)"/><path d="m112 304h16v24h-16z"/><path d="m72 309.578h16v28.844h-16z" transform="matrix(.832 -.555 .555 .832 -166.287 98.792)"/><path d="m173.578 336h28.844v16h-28.844z" transform="matrix(.832 -.555 .555 .832 -159.242 162.058)"/><path d="m145.578 316h28.844v16h-28.844z" transform="matrix(.555 -.832 .832 .555 -198.336 277.405)"/></g><path d="m432 168h80v16h-80z" fill="#351e27"/><path d="m464 336h16v176h-16z" fill="#351e27"/><path d="m152 160h-40v-40l40-8z" fill="#d89750"/><path d="m36.824 256a28.824 28.824 0 0 0 -28.824 28.824v3.176l24 192h-8v24h64l-3.86-248z" fill="#fff" opacity=".2"/><path d="m126.812 447.41a40 40 0 0 0 33.188-39.41c0-17.072-23.886-45.976-34.741-58.23 0 0 15.74 31.23 6.741 54.23l13-5s6.252 38.39-18.188 48.41z" fill="#c16b0c"/></svg>